<?xml version="1.0" standalone="no"?>
<!DOCTYPE svg PUBLIC "-//W3C//DTD SVG 20010904//EN"
 "http://www.w3.org/TR/2001/REC-SVG-20010904/DTD/svg10.dtd">
<svg version="1.0" xmlns="http://www.w3.org/2000/svg"
 width="1616.000000pt" height="1616.000000pt" viewBox="0 0 1616.000000 1616.000000"
 preserveAspectRatio="xMidYMid meet">
<metadata>
Created by potrace 1.11, written by Peter Selinger 2001-2013
</metadata>
<g transform="translate(0.000000,1616.000000) scale(0.100000,-0.100000)"
fill="#000000" stroke="none">
<path d="M4138 11345 c-2 -2 -53 -5 -114 -9 -61 -3 -117 -7 -125 -10 -8 -2
-39 -7 -69 -10 -201 -20 -513 -104 -751 -201 -297 -122 -580 -287 -824 -482
-139 -111 -397 -366 -495 -490 -260 -328 -446 -670 -569 -1043 -40 -122 -95
-339 -106 -417 -3 -21 -8 -49 -11 -61 -3 -13 -7 -43 -10 -65 -3 -23 -7 -52 -9
-63 -26 -124 -26 -601 0 -815 56 -453 205 -885 442 -1275 32 -52 63 -103 68
-112 16 -28 104 -151 159 -222 456 -590 1139 -1022 1856 -1175 41 -9 82 -18
91 -20 25 -5 85 -14 137 -21 26 -3 58 -8 72 -10 125 -19 548 -26 715 -11 49 5
92 10 95 12 3 2 30 6 60 10 271 32 632 142 920 279 52 24 100 46 106 48 6 2
49 -53 94 -122 134 -203 215 -289 277 -296 58 -6 123 46 131 104 6 48 -179
322 -875 1297 -71 99 -175 245 -231 325 -256 362 -401 566 -409 575 -5 6 -53
73 -107 150 -54 77 -109 147 -123 157 -32 20 -100 17 -136 -7 -28 -18 -57 -71
-57 -104 0 -37 107 -203 389 -601 79 -113 191 -270 247 -350 57 -80 107 -149
111 -155 5 -5 56 -76 113 -158 58 -81 178 -245 267 -365 89 -119 163 -222 163
-228 0 -12 -252 -115 -375 -154 -221 -70 -424 -119 -561 -135 -33 -4 -67 -9
-77 -11 -43 -8 -221 -17 -327 -18 -118 0 -347 11 -358 18 -4 2 -34 7 -67 10
-322 37 -761 192 -1074 380 -51 31 -95 56 -97 56 -6 0 -211 146 -254 181 -418
336 -720 733 -922 1214 -48 113 -104 267 -113 309 -3 10 -11 42 -19 70 -34
121 -70 313 -81 436 -3 36 -8 83 -10 105 -6 53 -6 387 0 450 39 423 125 733
302 1085 90 178 106 206 201 349 196 294 477 584 762 785 161 113 382 237 571
319 234 102 548 191 753 213 33 3 69 8 80 11 39 9 550 12 611 3 33 -5 83 -11
110 -14 224 -24 563 -120 794 -226 124 -56 299 -147 322 -167 8 -7 19 -13 22
-13 23 0 296 -195 417 -298 141 -120 395 -395 477 -519 7 -10 30 -43 51 -73
101 -147 249 -422 312 -580 49 -123 115 -331 136 -430 35 -160 39 -187 59
-348 13 -108 13 -575 0 -672 -47 -334 -111 -578 -222 -840 -123 -290 -323
-600 -528 -818 l-31 -33 -139 193 c-152 211 -446 621 -648 903 -164 229 -174
239 -230 239 -74 1 -128 -44 -130 -108 -1 -38 26 -85 206 -356 189 -284 396
-576 784 -1107 65 -89 142 -195 170 -235 426 -593 570 -784 605 -801 50 -25
103 -14 146 29 79 79 51 128 -522 908 l-87 119 38 41 c21 22 41 43 44 46 3 3
39 46 80 95 353 425 582 900 683 1420 23 118 25 134 32 200 3 33 8 63 10 66 7
12 18 274 18 419 -2 555 -138 1069 -413 1565 -330 594 -874 1091 -1502 1371
-68 30 -133 59 -144 64 -23 10 -196 70 -270 94 -52 16 -279 71 -330 80 -63 11
-263 36 -325 42 -65 6 -427 13 -432 9z"/>
<path d="M11578 11345 c-2 -2 -48 -5 -103 -8 -225 -12 -515 -68 -750 -145 -60
-20 -112 -36 -115 -37 -3 -1 -18 -7 -33 -13 -16 -7 -31 -12 -33 -12 -5 0 -29
-11 -189 -83 -982 -446 -1689 -1366 -1874 -2442 -6 -33 -13 -85 -16 -115 -4
-30 -8 -62 -10 -70 -21 -76 -21 -589 -1 -720 3 -14 7 -52 11 -85 4 -32 9 -68
11 -79 2 -11 6 -38 9 -61 13 -85 68 -305 108 -425 22 -69 42 -127 42 -130 2
-8 16 -42 25 -65 130 -309 269 -555 444 -790 110 -145 140 -180 301 -341 364
-365 795 -630 1299 -799 169 -57 404 -111 561 -130 28 -4 61 -8 75 -11 94 -17
485 -24 645 -11 612 49 1157 249 1676 616 161 114 393 324 524 475 28 32 57
65 66 74 35 37 150 193 216 292 182 274 331 594 421 900 33 113 77 307 87 380
6 52 16 117 21 143 10 57 19 236 19 397 -1 299 -15 438 -75 726 -61 296 -217
687 -380 954 -21 36 -47 78 -55 94 -9 16 -51 76 -92 135 -377 530 -884 924
-1503 1169 -152 59 -187 71 -361 116 -119 30 -261 59 -354 71 -16 3 -48 7 -70
10 -98 13 -537 29 -547 20z m418 -265 c188 -18 254 -29 418 -66 419 -96 859
-313 1216 -601 122 -98 333 -303 405 -393 20 -25 44 -54 55 -66 40 -44 185
-253 246 -356 133 -225 215 -408 304 -683 14 -43 58 -224 65 -265 3 -19 9 -55
15 -80 10 -48 26 -181 36 -295 6 -78 6 -376 0 -444 -3 -24 -7 -74 -11 -110
-33 -370 -182 -820 -391 -1181 -193 -334 -488 -669 -789 -895 -44 -33 -82 -62
-85 -65 -10 -10 -147 -98 -221 -143 -268 -161 -672 -315 -944 -361 -16 -3 -53
-10 -82 -15 -160 -31 -306 -40 -568 -36 -132 3 -253 6 -270 9 -16 3 -59 10
-95 15 -269 41 -496 102 -705 191 -22 9 -60 25 -85 35 -70 29 -267 132 -350
183 -211 130 -379 263 -560 442 -371 369 -637 806 -782 1290 -23 74 -30 98
-44 155 -13 53 -34 168 -58 315 -20 126 -28 491 -13 655 9 112 14 147 42 312
60 357 254 814 493 1158 123 176 350 430 507 566 370 320 895 585 1336 673 96
19 129 25 169 31 25 3 52 8 60 10 8 2 51 7 95 11 44 3 81 7 83 9 8 8 414 4
508 -5z"/>
</g>
</svg>
